<svg width="16" height="17" viewBox="0 0 16 17" fill="none" xmlns="http://www.w3.org/2000/svg">
<path d="M1.5 7.42368H2.75V10.4237H2C1.80109 10.4237 1.61032 10.5027 1.46967 10.6434C1.32902 10.784 1.25 10.9748 1.25 11.1737C1.25 11.3726 1.32902 11.5634 1.46967 11.704C1.61032 11.8447 1.80109 11.9237 2 11.9237H14C14.1989 11.9237 14.3897 11.8447 14.5303 11.704C14.671 11.5634 14.75 11.3726 14.75 11.1737C14.75 10.9748 14.671 10.784 14.5303 10.6434C14.3897 10.5027 14.1989 10.4237 14 10.4237H13.25V7.42368H14.5C14.6633 7.4237 14.8222 7.37041 14.9524 7.27191C15.0827 7.17342 15.1772 7.0351 15.2217 6.87796C15.2662 6.72083 15.2582 6.55348 15.1989 6.40132C15.1396 6.24916 15.0322 6.12052 14.8931 6.03493L8.39312 2.03493C8.27491 1.96217 8.13882 1.92365 8 1.92365C7.86118 1.92365 7.72509 1.96217 7.60687 2.03493L1.10687 6.03493C0.967793 6.12052 0.860445 6.24916 0.80114 6.40132C0.741835 6.55348 0.733814 6.72083 0.778295 6.87796C0.822775 7.0351 0.917327 7.17342 1.04759 7.27191C1.17785 7.37041 1.33669 7.4237 1.5 7.42368ZM4.25 7.42368H5.75V10.4237H4.25V7.42368ZM8.75 7.42368V10.4237H7.25V7.42368H8.75ZM11.75 10.4237H10.25V7.42368H11.75V10.4237ZM8 3.55431L11.85 5.92368H4.15L8 3.55431ZM15.75 13.6737C15.75 13.8726 15.671 14.0634 15.5303 14.204C15.3897 14.3447 15.1989 14.4237 15 14.4237H1C0.801088 14.4237 0.610322 14.3447 0.46967 14.204C0.329018 14.0634 0.25 13.8726 0.25 13.6737C0.25 13.4748 0.329018 13.284 0.46967 13.1434C0.610322 13.0027 0.801088 12.9237 1 12.9237H15C15.1989 12.9237 15.3897 13.0027 15.5303 13.1434C15.671 13.284 15.75 13.4748 15.75 13.6737Z" fill="black"/>
</svg>
