<svg width="16" height="17" viewBox="0 0 16 17" fill="none" xmlns="http://www.w3.org/2000/svg">
<path d="M9.75 5.77429H6.25C6.05109 5.77429 5.86032 5.85331 5.71967 5.99396C5.57902 6.13461 5.5 6.32538 5.5 6.52429V10.0243C5.5 10.2232 5.57902 10.414 5.71967 10.5546C5.86032 10.6953 6.05109 10.7743 6.25 10.7743H9.75C9.94891 10.7743 10.1397 10.6953 10.2803 10.5546C10.421 10.414 10.5 10.2232 10.5 10.0243V6.52429C10.5 6.32538 10.421 6.13461 10.2803 5.99396C10.1397 5.85331 9.94891 5.77429 9.75 5.77429ZM9 9.27429H7V7.27429H9V9.27429ZM14.5 9.02429H13.75V7.52429H14.5C14.6989 7.52429 14.8897 7.44527 15.0303 7.30462C15.171 7.16397 15.25 6.9732 15.25 6.77429C15.25 6.57538 15.171 6.38461 15.0303 6.24396C14.8897 6.10331 14.6989 6.02429 14.5 6.02429H13.75V3.77429C13.75 3.44277 13.6183 3.12483 13.3839 2.89041C13.1495 2.65599 12.8315 2.52429 12.5 2.52429H10.25V1.77429C10.25 1.57538 10.171 1.38461 10.0303 1.24396C9.88968 1.10331 9.69891 1.02429 9.5 1.02429C9.30109 1.02429 9.11032 1.10331 8.96967 1.24396C8.82902 1.38461 8.75 1.57538 8.75 1.77429V2.52429H7.25V1.77429C7.25 1.57538 7.17098 1.38461 7.03033 1.24396C6.88968 1.10331 6.69891 1.02429 6.5 1.02429C6.30109 1.02429 6.11032 1.10331 5.96967 1.24396C5.82902 1.38461 5.75 1.57538 5.75 1.77429V2.52429H3.5C3.16848 2.52429 2.85054 2.65599 2.61612 2.89041C2.3817 3.12483 2.25 3.44277 2.25 3.77429V6.02429H1.5C1.30109 6.02429 1.11032 6.10331 0.96967 6.24396C0.829018 6.38461 0.75 6.57538 0.75 6.77429C0.75 6.9732 0.829018 7.16397 0.96967 7.30462C1.11032 7.44527 1.30109 7.52429 1.5 7.52429H2.25V9.02429H1.5C1.30109 9.02429 1.11032 9.10331 0.96967 9.24396C0.829018 9.38461 0.75 9.57538 0.75 9.77429C0.75 9.9732 0.829018 10.164 0.96967 10.3046C1.11032 10.4453 1.30109 10.5243 1.5 10.5243H2.25V12.7743C2.25 13.1058 2.3817 13.4238 2.61612 13.6582C2.85054 13.8926 3.16848 14.0243 3.5 14.0243H5.75V14.7743C5.75 14.9732 5.82902 15.164 5.96967 15.3046C6.11032 15.4453 6.30109 15.5243 6.5 15.5243C6.69891 15.5243 6.88968 15.4453 7.03033 15.3046C7.17098 15.164 7.25 14.9732 7.25 14.7743V14.0243H8.75V14.7743C8.75 14.9732 8.82902 15.164 8.96967 15.3046C9.11032 15.4453 9.30109 15.5243 9.5 15.5243C9.69891 15.5243 9.88968 15.4453 10.0303 15.3046C10.171 15.164 10.25 14.9732 10.25 14.7743V14.0243H12.5C12.8315 14.0243 13.1495 13.8926 13.3839 13.6582C13.6183 13.4238 13.75 13.1058 13.75 12.7743V10.5243H14.5C14.6989 10.5243 14.8897 10.4453 15.0303 10.3046C15.171 10.164 15.25 9.9732 15.25 9.77429C15.25 9.57538 15.171 9.38461 15.0303 9.24396C14.8897 9.10331 14.6989 9.02429 14.5 9.02429ZM12.25 12.5243H3.75V4.02429H12.25V12.5243Z" fill="black"/>
</svg>
