<svg width="13" height="17" viewBox="0 0 13 17" fill="none" xmlns="http://www.w3.org/2000/svg">
<path d="M12.3983 8.00998C12.3717 7.8911 12.3166 7.78048 12.2376 7.6877C12.1587 7.59492 12.0583 7.52277 11.9452 7.47749L8.74646 6.19811L9.40833 1.78499C9.43263 1.62651 9.4055 1.46443 9.33094 1.3225C9.25637 1.18057 9.13829 1.06628 8.99401 0.996372C8.84973 0.926469 8.68684 0.904639 8.52925 0.934085C8.37165 0.96353 8.22764 1.0427 8.11833 1.15999L1.11833 8.65999C1.03513 8.74909 0.974896 8.85714 0.94286 8.97478C0.910824 9.09241 0.907947 9.21608 0.93448 9.33507C0.961012 9.45407 1.01615 9.5648 1.09513 9.65768C1.1741 9.75056 1.27453 9.82279 1.38771 9.86811L4.58646 11.1475L3.92458 15.5625C3.90029 15.721 3.92741 15.883 4.00198 16.025C4.07654 16.1669 4.19463 16.2812 4.33891 16.3511C4.48319 16.421 4.64607 16.4428 4.80367 16.4134C4.96126 16.3839 5.10528 16.3048 5.21458 16.1875L12.2146 8.68749C12.2982 8.59811 12.3586 8.48965 12.3906 8.37156C12.4226 8.25347 12.4253 8.12933 12.3983 8.00998ZM5.76646 13.3956L6.15833 10.785C6.18338 10.6179 6.15127 10.4472 6.06721 10.3007C5.98315 10.1541 5.85207 10.0402 5.69521 9.97749L2.96271 8.88436L7.56646 3.95186L7.17458 6.56249C7.14954 6.72957 7.18165 6.90022 7.26571 7.04678C7.34976 7.19334 7.48084 7.30723 7.63771 7.36999L10.3702 8.46311L5.76646 13.3956Z" fill="black"/>
</svg>
