
<svg width="157" height="203" viewBox="0 0 157 203" fill="none" xmlns="http://www.w3.org/2000/svg">
<g opacity="0.2">
<path fill-rule="evenodd" clip-rule="evenodd" d="M93.9021 177.245L195.144 164.104C196.302 163.997 197.148 163.415 197.559 162.648C198.032 161.736 202.204 153.925 201.642 152.831L156.149 56.8468C155.065 54.1616 152.521 54.108 151.611 54.2351L146.608 54.9344C144.334 55.2523 141.764 53.6475 140.846 51.3755L139.97 49.2066C138.802 46.3149 136.735 46.5493 135.37 46.74L133.303 46.9744L48.4737 51.0843C47.4191 51.1498 43.9913 59.0209 43.5802 59.7876C42.9625 60.6377 42.9248 61.734 43.3837 62.8701L88.1402 173.686C89.0579 175.958 91.628 177.563 93.9021 177.245Z" fill="#0C0F1D" stroke="#0C0F1D" stroke-width="1.97287"/>
<path fill-rule="evenodd" clip-rule="evenodd" d="M84.5996 170.23L200.023 171.901C202.62 171.915 204.218 170.004 203.597 167.516L175.559 55.1226C174.798 52.0697 171.994 51.7439 170.955 51.7383L165.242 51.7073C162.617 51.5802 160.032 49.5337 159.44 47.1591L158.848 44.7846C158.03 41.5055 155.707 41.5494 154.026 41.5685L151.798 41.4718L52.105 39.9717C49.5084 39.9576 47.9105 41.8686 48.5311 44.3561L78.7973 165.682C79.4179 168.17 82.003 170.216 84.5996 170.23Z" fill="#98EFE4" stroke="#0C0F1D" stroke-width="1.97287"/>
<path d="M61.4224 80.3133L169.88 82.6711" stroke="#0C0F1D" stroke-width="1.97287"/>
<path d="M59.3784 75.2529L167.836 77.6106" stroke="#0C0F1D" stroke-width="1.97287"/>
<path d="M57.3345 70.1924L165.792 72.5502" stroke="#0C0F1D" stroke-width="1.97287"/>
<path d="M55.2905 65.1317L163.748 67.4894" stroke="#0C0F1D" stroke-width="1.97287"/>
<path d="M53.2051 59.968L161.663 62.3257" stroke="#0C0F1D" stroke-width="1.97287"/>
<path fill-rule="evenodd" clip-rule="evenodd" d="M76.1961 58.2212L142.272 59.4084C148.249 59.476 154.226 65.1603 155.673 72.111C157.093 78.9354 153.457 84.4987 147.454 84.3047L81.4039 83.2439C75.4004 83.05 69.4234 77.3657 68.0031 70.5413C66.5565 63.5905 70.2188 58.1536 76.1961 58.2212Z" fill="#51C4B5" stroke="#0C0F1D" stroke-width="1.97287"/>
<path fill-rule="evenodd" clip-rule="evenodd" d="M96.6368 154.93L182.771 156.358C185.378 156.342 186.982 154.235 186.364 151.681L171.369 89.6929C170.751 87.1391 168.108 84.9517 165.501 84.9673L79.3949 83.6559C76.7597 83.5554 75.1559 85.663 75.7737 88.2169L90.769 150.205C91.3868 152.758 94.0296 154.946 96.6368 154.93Z" fill="#D8ADFA" stroke="#0C0F1D" stroke-width="1.97287"/>
<path fill-rule="evenodd" clip-rule="evenodd" d="M96.5193 154.959L101.029 155.098L83.759 83.7073L79.2775 83.6843C76.7597 83.5554 75.1559 85.663 75.7737 88.2169L90.769 150.205C91.3868 152.758 94.0296 154.946 96.5193 154.959ZM178.525 156.278L182.889 156.329C185.378 156.342 186.982 154.235 186.364 151.681L171.369 89.6929C170.751 87.1391 168.108 84.9517 165.619 84.939L161.255 84.8876L178.525 156.278Z" fill="#F7F7F7" stroke="#0C0F1D" stroke-width="1.97287"/>
<path fill-rule="evenodd" clip-rule="evenodd" d="M138.569 154.631L152.826 154.885L148.097 163.111L138.569 154.631Z" stroke="#0C0F1D" stroke-width="1.92507" stroke-linecap="round" stroke-linejoin="round"/>
</g>
</svg>
