<svg width="16" height="17" viewBox="0 0 16 17" fill="none" xmlns="http://www.w3.org/2000/svg">
<path d="M14 13.0243H13.25C13.8041 12.2123 14.141 11.272 14.2287 10.2929C14.3164 9.31385 14.1518 8.32863 13.7508 7.43116C13.3497 6.53369 12.7255 5.75388 11.9377 5.16604C11.1498 4.57819 10.2245 4.20191 9.25 4.07304V2.27429C9.25 1.94277 9.1183 1.62483 8.88388 1.39041C8.64946 1.15599 8.33152 1.02429 8 1.02429H5C4.66848 1.02429 4.35054 1.15599 4.11612 1.39041C3.8817 1.62483 3.75 1.94277 3.75 2.27429V8.27429C3.75 8.60581 3.8817 8.92375 4.11612 9.15818C4.35054 9.3926 4.66848 9.52429 5 9.52429H8C8.33152 9.52429 8.64946 9.3926 8.88388 9.15818C9.1183 8.92375 9.25 8.60581 9.25 8.27429V5.59179C10.2308 5.76887 11.1183 6.28451 11.7579 7.04882C12.3975 7.81314 12.7486 8.77767 12.75 9.77429C12.7526 10.3938 12.6186 11.0063 12.3573 11.5681C12.0961 12.1298 11.7142 12.6271 11.2388 13.0243H2C1.80109 13.0243 1.61032 13.1033 1.46967 13.244C1.32902 13.3846 1.25 13.5754 1.25 13.7743C1.25 13.9732 1.32902 14.164 1.46967 14.3046C1.61032 14.4453 1.80109 14.5243 2 14.5243H14C14.1989 14.5243 14.3897 14.4453 14.5303 14.3046C14.671 14.164 14.75 13.9732 14.75 13.7743C14.75 13.5754 14.671 13.3846 14.5303 13.244C14.3897 13.1033 14.1989 13.0243 14 13.0243ZM7.75 8.02429H5.25V2.52429H7.75V8.02429ZM4.5 12.0243C4.30109 12.0243 4.11032 11.9453 3.96967 11.8046C3.82902 11.664 3.75 11.4732 3.75 11.2743C3.75 11.0754 3.82902 10.8846 3.96967 10.744C4.11032 10.6033 4.30109 10.5243 4.5 10.5243H8.5C8.69891 10.5243 8.88968 10.6033 9.03033 10.744C9.17098 10.8846 9.25 11.0754 9.25 11.2743C9.25 11.4732 9.17098 11.664 9.03033 11.8046C8.88968 11.9453 8.69891 12.0243 8.5 12.0243H4.5Z" fill="black"/>
</svg>
