<svg width="17" height="17" viewBox="0 0 17 17" fill="none" xmlns="http://www.w3.org/2000/svg">
<path d="M14.333 12.5243H14.083V2.77429C14.083 2.57538 14.004 2.38461 13.8633 2.24396C13.7227 2.10331 13.5319 2.02429 13.333 2.02429H9.83301C9.6341 2.02429 9.44333 2.10331 9.30268 2.24396C9.16203 2.38461 9.08301 2.57538 9.08301 2.77429V5.02429H6.33301C6.1341 5.02429 5.94333 5.10331 5.80268 5.24396C5.66203 5.38461 5.58301 5.57538 5.58301 5.77429V8.02429H3.33301C3.1341 8.02429 2.94333 8.10331 2.80268 8.24396C2.66203 8.38461 2.58301 8.57538 2.58301 8.77429V12.5243H2.33301C2.1341 12.5243 1.94333 12.6033 1.80268 12.744C1.66203 12.8846 1.58301 13.0754 1.58301 13.2743C1.58301 13.4732 1.66203 13.664 1.80268 13.8046C1.94333 13.9453 2.1341 14.0243 2.33301 14.0243H14.333C14.5319 14.0243 14.7227 13.9453 14.8633 13.8046C15.004 13.664 15.083 13.4732 15.083 13.2743C15.083 13.0754 15.004 12.8846 14.8633 12.744C14.7227 12.6033 14.5319 12.5243 14.333 12.5243ZM10.583 3.52429H12.583V12.5243H10.583V3.52429ZM7.08301 6.52429H9.08301V12.5243H7.08301V6.52429ZM4.08301 9.52429H5.58301V12.5243H4.08301V9.52429Z" fill="black"/>
</svg>
