<svg width="16" height="16" viewBox="0 0 16 16" fill="none" xmlns="http://www.w3.org/2000/svg">
<path d="M14 12.75H13.25C13.8041 11.938 14.141 10.9977 14.2287 10.0186C14.3163 9.03956 14.1518 8.05434 13.7508 7.15687C13.3497 6.2594 12.7255 5.47959 11.9377 4.89175C11.1498 4.3039 10.2245 3.92762 9.25 3.79875V2C9.25 1.66848 9.1183 1.35054 8.88388 1.11612C8.64946 0.881696 8.33152 0.75 8 0.75H5C4.66848 0.75 4.35054 0.881696 4.11612 1.11612C3.8817 1.35054 3.75 1.66848 3.75 2V8C3.75 8.33152 3.8817 8.64946 4.11612 8.88388C4.35054 9.1183 4.66848 9.25 5 9.25H8C8.33152 9.25 8.64946 9.1183 8.88388 8.88388C9.1183 8.64946 9.25 8.33152 9.25 8V5.3175C10.2308 5.49458 11.1183 6.01021 11.7579 6.77453C12.3975 7.53885 12.7486 8.50338 12.75 9.5C12.7526 10.1195 12.6186 10.732 12.3573 11.2938C12.0961 11.8555 11.7142 12.3528 11.2388 12.75H2C1.80109 12.75 1.61032 12.829 1.46967 12.9697C1.32902 13.1103 1.25 13.3011 1.25 13.5C1.25 13.6989 1.32902 13.8897 1.46967 14.0303C1.61032 14.171 1.80109 14.25 2 14.25H14C14.1989 14.25 14.3897 14.171 14.5303 14.0303C14.671 13.8897 14.75 13.6989 14.75 13.5C14.75 13.3011 14.671 13.1103 14.5303 12.9697C14.3897 12.829 14.1989 12.75 14 12.75ZM7.75 7.75H5.25V2.25H7.75V7.75ZM4.5 11.75C4.30109 11.75 4.11032 11.671 3.96967 11.5303C3.82902 11.3897 3.75 11.1989 3.75 11C3.75 10.8011 3.82902 10.6103 3.96967 10.4697C4.11032 10.329 4.30109 10.25 4.5 10.25H8.5C8.69891 10.25 8.88968 10.329 9.03033 10.4697C9.17098 10.6103 9.25 10.8011 9.25 11C9.25 11.1989 9.17098 11.3897 9.03033 11.5303C8.88968 11.671 8.69891 11.75 8.5 11.75H4.5Z" fill="black"/>
</svg>
