<svg width="17" height="17" viewBox="0 0 17 17" fill="none" xmlns="http://www.w3.org/2000/svg">
<g clip-path="url(#clip0_2633_10077)">
<path d="M14.3983 8.00998C14.3717 7.8911 14.3166 7.78048 14.2376 7.6877C14.1587 7.59492 14.0583 7.52277 13.9452 7.47749L10.7465 6.19811L11.4083 1.78499C11.4326 1.62651 11.4055 1.46443 11.3309 1.3225C11.2564 1.18057 11.1383 1.06628 10.994 0.996372C10.8497 0.926469 10.6868 0.904639 10.5292 0.934085C10.3717 0.96353 10.2276 1.0427 10.1183 1.15999L3.11833 8.65999C3.03513 8.74909 2.9749 8.85714 2.94286 8.97478C2.91082 9.09241 2.90795 9.21608 2.93448 9.33507C2.96101 9.45407 3.01615 9.5648 3.09513 9.65768C3.1741 9.75056 3.27453 9.82279 3.38771 9.86811L6.58646 11.1475L5.92458 15.5625C5.90029 15.721 5.92741 15.883 6.00198 16.025C6.07654 16.1669 6.19463 16.2812 6.33891 16.3511C6.48319 16.421 6.64607 16.4428 6.80367 16.4134C6.96126 16.3839 7.10528 16.3048 7.21458 16.1875L14.2146 8.68749C14.2982 8.59811 14.3586 8.48965 14.3906 8.37156C14.4226 8.25347 14.4253 8.12934 14.3983 8.00998ZM7.76646 13.3956L8.15833 10.785C8.18338 10.6179 8.15127 10.4472 8.06721 10.3007C7.98315 10.1541 7.85207 10.0402 7.69521 9.97749L4.96271 8.88436L9.56646 3.95186L9.17458 6.56249C9.14954 6.72957 9.18165 6.90022 9.26571 7.04678C9.34976 7.19334 9.48084 7.30723 9.63771 7.36999L12.3702 8.46311L7.76646 13.3956Z" fill="black"/>
</g>
<defs>
<clipPath id="clip0_2633_10077">
<rect width="16" height="16" fill="white" transform="translate(0.666504 0.673706)"/>
</clipPath>
</defs>
</svg>
